<svg xmlns="http://www.w3.org/2000/svg" version="1.1" xmlns:xlink="http://www.w3.org/1999/xlink" xmlns:svgjs="http://svgjs.com/svgjs" width="1600" height="800" preserveAspectRatio="none" viewBox="0 0 1600 800"><g mask="url(&quot;#SvgjsMask2718&quot;)" fill="none"><rect width="1600" height="800" x="0" y="0" fill="url(#SvgjsLinearGradient2719)"></rect><path d="M1600 0L1503.8 0L1600 11.6z" fill="rgba(255, 255, 255, .1)"></path><path d="M1503.8 0L1600 11.6L1600 140.95L1293.8899999999999 0z" fill="rgba(255, 255, 255, .075)"></path><path d="M1293.8899999999999 0L1600 140.95L1600 397.9L1292.9599999999998 0z" fill="rgba(255, 255, 255, .05)"></path><path d="M1292.96 0L1600 397.9L1600 411.53L1050.1100000000001 0z" fill="rgba(255, 255, 255, .025)"></path><path d="M0 800L645.72 800L0 404.6z" fill="rgba(0, 0, 0, .1)"></path><path d="M0 404.6L645.72 800L862.12 800L0 294.17z" fill="rgba(0, 0, 0, .075)"></path><path d="M0 294.17L862.12 800L1248 800L0 237.69000000000003z" fill="rgba(0, 0, 0, .05)"></path><path d="M0 237.69000000000005L1248 800L1275.97 800L0 233.83000000000004z" fill="rgba(0, 0, 0, .025)"></path></g><defs><mask id="SvgjsMask2718"><rect width="1600" height="800" fill="#ffffff"></rect></mask><linearGradient x1="87.5%" y1="125%" x2="12.5%" y2="-25%" gradientUnits="userSpaceOnUse" id="SvgjsLinearGradient2719"><stop stop-color="rgba(0, 20, 45, 1)" offset="0"></stop><stop stop-color="rgba(14, 42, 71, 1)" offset="1"></stop></linearGradient></defs></svg>