<svg xmlns="http://www.w3.org/2000/svg" version="1.1" xmlns:xlink="http://www.w3.org/1999/xlink" xmlns:svgjs="http://svgjs.com/svgjs" width="1600" height="800" preserveAspectRatio="none" viewBox="0 0 1600 800"><g mask="url(&quot;#SvgjsMask1328&quot;)" fill="none"><rect width="1600" height="800" x="0" y="0" fill="url(#SvgjsLinearGradient1329)"></rect><path d="M1600 0L1084.08 0L1600 310.51z" fill="rgba(255, 255, 255, .1)"></path><path d="M1084.08 0L1600 310.51L1600 408.43L987.1399999999999 0z" fill="rgba(255, 255, 255, .075)"></path><path d="M987.1400000000001 0L1600 408.43L1600 507.52L535.6600000000001 0z" fill="rgba(255, 255, 255, .05)"></path><path d="M535.6600000000001 0L1600 507.52L1600 654.36L227.2000000000001 0z" fill="rgba(255, 255, 255, .025)"></path><path d="M0 800L544.33 800L0 610.94z" fill="rgba(0, 0, 0, .1)"></path><path d="M0 610.94L544.33 800L1022.3000000000001 800L0 378.12000000000006z" fill="rgba(0, 0, 0, .075)"></path><path d="M0 378.12L1022.3000000000001 800L1275.53 800L0 198.31z" fill="rgba(0, 0, 0, .05)"></path><path d="M0 198.30999999999995L1275.53 800L1363.22 800L0 170.52999999999994z" fill="rgba(0, 0, 0, .025)"></path></g><defs><mask id="SvgjsMask1328"><rect width="1600" height="800" fill="#ffffff"></rect></mask><linearGradient x1="87.5%" y1="125%" x2="12.5%" y2="-25%" gradientUnits="userSpaceOnUse" id="SvgjsLinearGradient1329"><stop stop-color="rgba(0, 20, 45, 1)" offset="0"></stop><stop stop-color="rgba(255, 255, 255, 1)" offset="1"></stop></linearGradient></defs></svg>